<svg id="Group_3197" data-name="Group 3197" xmlns="http://www.w3.org/2000/svg" width="10.077" height="10.117" viewBox="0 0 10.077 10.117">
  <g id="Group_3196" data-name="Group 3196">
    <path id="Path_2899" data-name="Path 2899" d="M86.55,341.333a1.012,1.012,0,1,0,1.008,1.012A1.005,1.005,0,0,0,86.55,341.333Z" transform="translate(-83.527 -333.239)" fill="#2e2e22"/>
    <path id="Path_2900" data-name="Path 2900" d="M3.577,5.564H7.331a1.01,1.01,0,0,0,.882-.521l1.8-3.283a.491.491,0,0,0,.063-.243.5.5,0,0,0-.5-.506H2.124L1.645,0H0V1.012H1.008L2.819,4.849l-.68,1.239a1.032,1.032,0,0,0-.123.488A1.009,1.009,0,0,0,3.023,7.588H9.069V6.576H3.237a.125.125,0,0,1-.126-.126.12.12,0,0,1,.015-.061Z" fill="#2e2e22"/>
    <path id="Path_2901" data-name="Path 2901" d="M299.883,341.333a1.012,1.012,0,1,0,1.008,1.012A1.005,1.005,0,0,0,299.883,341.333Z" transform="translate(-291.821 -333.239)" fill="#2e2e22"/>
  </g>
</svg>
